<svg id="Capa_1" enable-background="new 0 0 512 512" height="50" viewBox="0 0 512 512" width="50" xmlns="http://www.w3.org/2000/svg"><path d="m466.825 210.825c0-115.26-92.493-208.917-207.305-210.797-116.579-1.908-213.64 92.907-214.343 209.498-.482 79.998 43.608 149.719 108.88 185.846 13.223 7.319 24.207 18.097 32.38 30.81l47.384 73.709c10.378 16.144 33.977 16.144 44.356 0l47.387-73.714c8.189-12.738 19.214-23.512 32.46-30.851 64.873-35.944 108.801-105.081 108.801-184.501z" fill="#fb2b3a"/><path d="m466.827 210.825c0 79.418-43.927 148.562-108.802 184.507-13.243 7.333-24.269 18.111-32.458 30.849l-47.393 73.714c-10.376 16.141-33.974 16.141-44.35 0l-.743-1.165c6.271-1.496 12.078-5.291 16.007-11.387l47.382-73.714c8.189-12.738 19.215-23.516 32.458-30.849 64.875-35.944 108.802-105.089 108.802-184.506 0-81.161-45.856-151.605-113.082-186.848 82.739 28.486 142.179 106.996 142.179 199.399z" fill="#e41f2d"/><circle cx="255.999" cy="210.825" fill="#ebebeb" r="150.684"/><path d="m406.686 210.825c0 83.223-67.464 150.687-150.687 150.687-16.884 0-33.128-2.774-48.29-7.911 7.602 1.186 15.378 1.795 23.31 1.795 83.223 0 150.687-67.464 150.687-150.677 0-66.36-42.885-122.695-102.459-142.797 72.187 11.18 127.439 73.59 127.439 148.903z" fill="#d3d1d1"/><path d="m175.961 267.239h-17.363c-4.427 0-8.015-3.589-8.015-8.015v-47.307h33.394v47.307c-.001 4.426-3.589 8.015-8.016 8.015z" fill="#5a5a5a"/><path d="m353.401 267.239h-17.363c-4.427 0-8.015-3.589-8.015-8.015v-47.307h33.394v47.307c-.001 4.426-3.59 8.015-8.016 8.015z" fill="#5a5a5a"/><path d="m183.976 211.916v47.308c0 4.428-3.587 8.014-8.014 8.014h-12.69c4.427 0 8.014-3.587 8.014-8.014v-47.308z" fill="#444"/><path d="m361.416 211.916v47.308c0 4.428-3.587 8.014-8.014 8.014h-12.692c4.427 0 8.019-3.587 8.019-8.014v-47.308z" fill="#444"/><path d="m361.412 197.109v15.281c0 4.112-1.546 8.069-4.342 11.086l-25.668 27.72c-2.401 2.604-5.787 4.076-9.329 4.076h-132.15c-3.542 0-6.918-1.472-9.329-4.076l-4.665-5.042-21.004-22.678c-2.788-3.018-4.343-6.974-4.343-11.086v-15.281c0-7.774 4.582-14.821 11.684-17.977l6.56-2.916h174.342l6.569 2.916c.156.064.303.138.46.212 4.655 2.208 8.17 6.118 9.936 10.782.018.046.037.101.055.156.635 1.702 1.012 3.505 1.141 5.355.018.156.028.313.037.469.009.147.018.294.028.442.018.193.018.377.018.561z" fill="#fac600"/><path d="m276.11 106.447h-41.07c-2.396 0-4.579 1.377-5.612 3.539l-8.896 18.632h35.042 35.042l-8.896-18.632c-1.031-2.162-3.214-3.539-5.61-3.539z" fill="#fac600"/><path d="m290.616 128.619h-12.962l-8.898-18.632c-1.031-2.164-3.216-3.539-5.61-3.539h12.962c2.397 0 4.583 1.375 5.614 3.539z" fill="#e0ae10"/><path d="m361.412 197.109v15.281c0 4.112-1.546 8.069-4.342 11.086l-25.668 27.72c-2.401 2.604-5.787 4.076-9.329 4.076h-132.15c-3.542 0-6.918-1.472-9.329-4.076l-6.763-7.48h141.094c3.809 0 7.452-1.5 10.046-4.14 7.848-7.977 20.608-21.455 20.608-21.455 3.56-3.616 4.673-11.684 4.618-16.873v-21.905c4.655 2.208 8.17 6.118 9.936 10.782.018.046.037.101.055.156.58 1.941.975 3.791 1.141 5.355.018.156.028.313.037.469.009.147.018.294.028.442.018.194.018.378.018.562z" fill="#e0ae10"/><path d="m203.103 199.731c-3.046 0-5.188 2.998-4.2 5.88l6.774 19.759c.615 1.795 2.303 3 4.2 3h92.244c1.897 0 3.585-1.205 4.2-3l6.774-19.759c.988-2.882-1.153-5.88-4.2-5.88z" fill="#5a5a5a"/><path d="m313.097 205.611-6.776 19.762c-.614 1.795-2.306 2.996-4.204 2.996h-92.237c-1.904 0-3.589-1.201-4.204-2.996l-4.141-12.082h87.349c1.849 0 3.487-.416 4.087-2.162l5.159-11.399h10.763c3.051-.001 5.187 3.002 4.204 5.881z" fill="#444"/><path d="m323.346 137.249c-3.026-5.931-9.122-9.664-15.78-9.664h-51.567-51.567c-6.658 0-12.754 3.733-15.78 9.664l-19.882 38.964h87.229 87.229z" fill="#8ac9fe"/><path d="m343.229 176.211h-13.385l-19.88-38.962c-3.025-5.932-9.123-9.662-15.781-9.662h13.385c6.658 0 12.751 3.73 15.777 9.662z" fill="#60b7ff"/></svg>